<svg width="20" height="20" viewBox="0 0 20 20" fill="none" xmlns="http://www.w3.org/2000/svg">
<g id="Group 427320022">
<path id="Path" d="M12.1226 7.87951C13.2943 9.05121 13.2943 10.9509 12.1226 12.1226C10.9509 13.2943 9.05114 13.2943 7.87944 12.1226C6.70774 10.9509 6.70774 9.05121 7.87944 7.87951C9.05114 6.70781 10.9509 6.70781 12.1226 7.87951" stroke="#0D5EAF" stroke-width="1.8" stroke-linecap="round" stroke-linejoin="round"/>
<path id="Path_2" fill-rule="evenodd" clip-rule="evenodd" d="M14.1815 16.7267V16.7267C14.6845 17.2298 15.5016 17.2298 16.0047 16.7267L16.7267 16.0047C17.2298 15.5016 17.2298 14.6845 16.7267 14.1815V14.1815C16.3447 13.7994 16.2327 13.2264 16.4427 12.7283C16.4647 12.6753 16.4867 12.6223 16.5077 12.5683C16.6907 12.1022 17.1448 11.8022 17.6448 11.8022H17.7119C18.4239 11.8022 19.001 11.2251 19.001 10.5131V9.49194C19.001 8.77987 18.4239 8.2028 17.7119 8.2028H17.6448C17.1448 8.2028 16.6907 7.90177 16.5077 7.43672C16.4867 7.38271 16.4647 7.3297 16.4427 7.2767C16.2327 6.77864 16.3447 6.20558 16.7267 5.82354V5.82354C17.2298 5.32048 17.2298 4.50339 16.7267 4.00033L16.0047 3.27825C15.5016 2.7752 14.6845 2.7752 14.1815 3.27825V3.27825C13.7994 3.6603 13.2264 3.77231 12.7283 3.56228C12.6753 3.54028 12.6223 3.51828 12.5683 3.49728C12.1022 3.31126 11.8012 2.85621 11.8012 2.35615V2.28914C11.8012 1.57706 11.2241 1 10.5121 1H9.49094C8.77786 1 8.2008 1.57706 8.2008 2.28914V2.35615C8.2008 2.85621 7.89977 3.31026 7.43471 3.49328C7.38071 3.51528 7.3277 3.53628 7.2747 3.55928C6.77664 3.76931 6.20358 3.6573 5.82154 3.27525V3.27525C5.31848 2.7722 4.50139 2.7722 3.99833 3.27525L3.27525 3.99733C2.7722 4.50039 2.7722 5.31748 3.27525 5.82054V5.82054C3.6573 6.20258 3.76931 6.77564 3.55928 7.2737C3.53628 7.3277 3.51528 7.38071 3.49428 7.43472C3.31126 7.89977 2.85621 8.2008 2.35615 8.2008H2.28914C1.57706 8.2008 1 8.77787 1 9.48994V10.5111C1 11.2241 1.57706 11.8012 2.28914 11.8012H2.35615C2.85621 11.8012 3.31026 12.1022 3.49328 12.5673C3.51428 12.6213 3.53628 12.6743 3.55828 12.7273C3.76831 13.2254 3.6563 13.7984 3.27425 14.1805V14.1805C2.7712 14.6835 2.7712 15.5006 3.27425 16.0037L3.99633 16.7257C4.49939 17.2288 5.31648 17.2288 5.81954 16.7257V16.7257C6.20158 16.3437 6.77464 16.2317 7.2727 16.4417C7.3257 16.4637 7.37871 16.4857 7.43271 16.5067C7.89877 16.6897 8.1988 17.1438 8.1988 17.6439V17.7109C8.1988 18.4229 8.77586 19 9.48794 19H10.5091C11.2211 19 11.7982 18.4229 11.7982 17.7109V17.6439C11.7982 17.1438 12.0992 16.6897 12.5643 16.5067C12.6183 16.4857 12.6713 16.4637 12.7243 16.4417C13.2254 16.2327 13.7984 16.3447 14.1815 16.7267V16.7267Z" stroke="#0D5EAF" stroke-width="1.8" stroke-linecap="round" stroke-linejoin="round"/>
</g>
</svg>
